<svg width="86" height="42" viewBox="0 0 86 42" fill="none" xmlns="http://www.w3.org/2000/svg">
<path d="M86.0001 11.4194H74.6882L68.9934 16.9927H80.7887L86.0001 11.4194Z" fill="#007AFF"/>
<path d="M74.3671 0V11.0706L68.6724 16.6439V5.10022L74.3671 0Z" fill="#007AFF"/>
<path d="M14.0322 42H0V19.6826H4.32576V38.3535H14.0322V42Z" fill="#363636"/>
<path d="M21.1702 42H17.0562V19.6826H21.1702V42Z" fill="#363636"/>
<path d="M30.4039 42H26.1699V19.6826H40.5868V23.1357H30.4039V29.2305H38.4204V32.5834H30.4039V42Z" fill="#363636"/>
<path d="M47.6573 42H43.5503V19.6826H47.6573V42Z" fill="#363636"/>
<path d="M69.3568 42H64.5689L59.5233 33.205L54.1779 42H50.3496L57.5651 30.3872L51.3658 19.6826H56.1432L60.3525 27.1068L64.8158 19.6826H68.6582L62.3072 29.8693L69.3568 42Z" fill="#363636"/>
</svg>
